<svg width="32" height="32" viewBox="0 0 171 154" fill="none" xmlns="http://www.w3.org/2000/svg">
  <path d="M169 96.65c-3.68 23.52-15.94 40.06-23.55 48.56a21.58 21.58 0 01-2 2.2 20.8 20.8 0 01-31.21-2.41 19.79 19.79 0 011.64-25.56 46.75 46.75 0 008.76-10.87 48.26 48.26 0 005.65-15.82c1.57-8.49.81-17.25-2.2-25.34-1.48-3.92-4.52-12-12-18.45a35.08 35.08 0 00-5.92-4.13c-3.2-1.78-13.33-7.42-25.61-3.84-13.16 3.86-18.43 15.35-19.11 16.9a29.9 29.9 0 00-1.45 19.5 30.94 30.94 0 008.17 14l-14.23 13.21c-7.47-6.44-10.51-14.52-12-18.44a48 48 0 01-2.2-25.34A47.76 47.76 0 0147.41 45a46.56 46.56 0 017.46-9.64c.46-.46.9-.88 1.32-1.26a19.76 19.76 0 001.65-25.57A77.78 77.78 0 0197.32.37c27.23 1.75 44.16 18 48.93 22.67 15 14.86 19.52 31.58 21.27 38.47a88.72 88.72 0 011.48 35.14z" fill="#090a40"/>
</svg>
